<?xml version="1.0" standalone="no"?>
<!DOCTYPE svg PUBLIC "-//W3C//DTD SVG 20010904//EN"
 "http://www.w3.org/TR/2001/REC-SVG-20010904/DTD/svg10.dtd">
<svg version="1.0" xmlns="http://www.w3.org/2000/svg"
 width="2000.000000pt" height="2000.000000pt" viewBox="0 0 2000.000000 2000.000000"
 preserveAspectRatio="xMidYMid meet">
<metadata>
Created by potrace 1.14, written by Peter Selinger 2001-2017
</metadata>
<g transform="translate(0.000000,2000.000000) scale(0.100000,-0.100000)"
fill="#000000" stroke="none">
<path d="M11370 17315 c-7 -9 -15 -13 -18 -11 -2 3 -22 -6 -43 -20 -21 -13
-39 -21 -39 -18 0 4 -8 0 -17 -8 -10 -9 -40 -26 -68 -39 -27 -13 -54 -29 -58
-36 -5 -7 -12 -11 -17 -8 -5 3 -11 1 -15 -5 -4 -6 -11 -8 -16 -5 -5 4 -9 1 -9
-4 0 -6 -7 -11 -15 -11 -8 0 -15 -4 -15 -10 0 -5 -7 -7 -15 -4 -8 4 -15 2 -15
-3 0 -5 -57 -39 -127 -74 -71 -35 -130 -67 -133 -70 -3 -3 -32 -19 -65 -35
-33 -16 -62 -31 -65 -35 -7 -8 -44 -22 -52 -21 -5 1 -8 -3 -8 -8 0 -5 -6 -10
-14 -10 -7 0 -26 -10 -42 -22 -16 -13 -31 -23 -34 -22 -12 1 -60 -21 -60 -29
0 -4 -4 -6 -9 -3 -5 3 -14 -1 -21 -9 -7 -8 -16 -12 -21 -9 -5 3 -9 1 -9 -4 0
-6 -20 -18 -45 -29 -25 -10 -45 -22 -45 -26 0 -5 -4 -6 -9 -3 -5 3 -14 -1 -21
-9 -7 -8 -16 -12 -21 -9 -5 3 -9 0 -9 -5 0 -6 -7 -11 -15 -11 -8 0 -15 -5 -15
-11 0 -5 -4 -8 -9 -4 -5 3 -12 1 -16 -5 -4 -6 -10 -8 -15 -5 -5 3 -12 -1 -17
-8 -4 -7 -24 -19 -43 -27 -19 -8 -37 -17 -40 -20 -3 -4 -32 -20 -65 -35 -33
-16 -63 -34 -67 -40 -4 -5 -8 -6 -8 -1 0 5 -8 2 -17 -6 -10 -8 -40 -25 -68
-38 -27 -13 -53 -28 -57 -34 -4 -6 -8 -7 -8 -3 0 5 -13 -1 -30 -13 -16 -12
-30 -18 -30 -13 0 4 -7 -1 -15 -11 -8 -11 -15 -16 -15 -12 0 5 -7 3 -15 -4 -8
-7 -15 -9 -15 -4 0 5 -5 2 -10 -7 -5 -8 -27 -21 -50 -29 -22 -7 -40 -17 -40
-23 0 -5 -7 -7 -15 -3 -8 3 -15 1 -15 -5 0 -5 -12 -14 -26 -19 -15 -6 -40 -20
-55 -31 -21 -14 -29 -16 -29 -7 0 8 -5 6 -11 -5 -9 -16 -88 -59 -112 -61 -4
-1 -12 -8 -17 -16 -5 -8 -10 -11 -10 -7 0 5 -13 -1 -30 -13 -16 -12 -30 -18
-30 -15 0 3 -13 -3 -30 -15 -16 -12 -30 -18 -30 -15 0 4 -8 -1 -17 -11 -18
-18 -25 -52 -11 -60 4 -3 6 -9 3 -15 -3 -5 -1 -35 4 -66 6 -32 13 -83 16 -113
3 -30 8 -66 10 -80 3 -14 7 -45 10 -70 3 -25 10 -72 15 -105 5 -33 12 -86 15
-119 3 -32 7 -61 9 -65 2 -3 7 -39 10 -80 4 -41 9 -77 10 -80 2 -3 7 -31 10
-61 10 -83 15 -121 21 -160 3 -19 7 -55 10 -80 3 -25 7 -56 10 -70 3 -14 7
-45 10 -70 3 -25 12 -96 20 -158 8 -62 15 -117 15 -123 0 -5 9 -1 19 9 41 37
76 57 94 54 4 -1 7 3 7 8 0 6 4 10 10 10 5 0 33 11 62 24 80 36 140 57 146 52
2 -3 14 0 26 6 11 6 35 13 51 15 17 1 44 5 60 8 40 7 357 7 415 0 25 -3 57 -6
73 -8 15 -1 27 -5 27 -9 0 -5 3 -7 8 -7 4 1 9 1 12 0 3 -2 21 -4 39 -7 19 -2
37 -8 40 -12 4 -4 13 -8 21 -10 8 -2 31 -10 50 -20 19 -9 38 -15 43 -14 4 1 7
-2 7 -8 0 -5 7 -10 15 -10 8 0 15 1 15 3 0 1 -65 196 -144 432 l-144 430 753
753 753 754 -170 169 c-94 93 -174 169 -178 169 -4 0 -13 -7 -20 -15z"/>
<path d="M12750 14469 c-415 -417 -759 -754 -765 -751 -11 7 -32 12 -52 14 -7
1 -13 4 -13 8 0 4 -6 7 -12 8 -24 1 -57 11 -77 22 -12 6 -21 8 -21 4 0 -3 -6
-1 -13 5 -8 6 -17 8 -20 4 -4 -3 -7 -2 -7 4 0 5 -7 10 -15 11 -8 1 -22 3 -30
4 -8 1 -15 4 -15 8 0 4 -7 7 -15 8 -8 1 -22 3 -30 4 -8 1 -15 5 -15 10 0 5 -5
6 -10 3 -6 -4 -16 -2 -23 3 -13 11 -97 37 -109 34 -5 -1 -8 2 -8 6 0 5 -6 9
-12 10 -13 1 -48 9 -58 12 -3 1 -8 2 -12 1 -5 0 -8 4 -8 11 0 6 -3 8 -6 5 -4
-3 -15 -2 -25 3 -10 6 -29 11 -43 12 -15 1 -26 5 -26 9 0 3 -6 6 -12 7 -7 0
-40 11 -73 22 -79 29 -99 33 -88 17 34 -45 86 -216 102 -332 19 -146 8 -446
-20 -525 -4 -14 -10 -36 -13 -50 -8 -44 -86 -220 -98 -220 -5 0 -8 -5 -8 -11
0 -6 -9 -24 -21 -40 -19 -27 -18 -56 2 -44 5 4 9 3 9 -2 0 -7 25 -10 128 -15
17 -1 32 -4 32 -7 0 -3 12 -7 28 -7 73 -4 122 -10 122 -15 0 -3 25 -5 55 -5
30 1 55 -2 55 -5 0 -3 12 -6 28 -7 15 -1 41 -4 57 -7 17 -2 53 -8 80 -11 51
-6 73 -9 135 -19 34 -5 101 -14 150 -19 14 -2 27 -4 30 -5 9 -4 65 -11 112
-13 27 -2 48 -5 48 -8 0 -3 12 -6 28 -6 15 -1 47 -4 72 -8 25 -4 61 -8 80 -9
20 -2 42 -7 49 -12 10 -6 12 -4 6 5 -5 9 -4 11 3 6 18 -11 62 -19 167 -30 11
-1 25 -4 30 -8 19 -12 42 18 105 137 35 66 67 122 72 123 4 2 8 9 8 15 0 7 16
41 34 77 19 36 47 90 62 120 16 30 31 57 34 60 3 3 21 37 40 75 19 39 39 73
45 77 5 4 6 8 2 8 -5 0 1 14 13 30 12 17 18 30 14 30 -4 0 1 9 11 20 10 11 14
20 9 20 -5 0 -4 4 1 8 13 9 119 209 120 225 0 4 5 11 10 15 13 9 91 164 87
175 -1 4 2 7 7 7 5 0 13 10 17 23 3 12 13 30 22 40 8 9 12 17 8 17 -4 0 0 7 8
16 9 8 16 24 16 35 0 10 3 19 8 19 10 0 42 58 42 76 0 8 4 14 8 14 6 0 27 43
32 68 1 4 7 14 15 22 7 8 22 33 33 55 11 22 39 76 62 120 75 140 84 160 81
174 -1 7 2 10 7 7 7 -4 42 51 47 74 3 14 39 76 47 81 5 3 10 10 10 15 0 11 40
97 47 104 8 7 71 133 71 142 0 4 -75 82 -167 175 l-168 168 -755 -756z"/>
<path d="M9848 14444 c-5 -4 -40 -11 -98 -18 -9 -1 -21 -5 -28 -10 -6 -4 -16
-4 -22 -1 -5 3 -10 1 -10 -4 0 -6 -3 -10 -7 -9 -5 0 -15 -1 -23 -4 -8 -3 -34
-11 -57 -18 -24 -7 -43 -17 -43 -22 0 -5 -4 -6 -10 -3 -5 3 -10 2 -10 -4 0 -6
-6 -8 -13 -5 -7 2 -24 -6 -37 -18 -14 -13 -26 -22 -27 -21 -5 4 -63 -32 -63
-39 0 -5 -6 -8 -12 -8 -7 0 -30 -16 -52 -35 -21 -19 -42 -35 -48 -35 -5 0 -7
-3 -5 -7 3 -5 -1 -14 -9 -21 -8 -7 -14 -10 -14 -6 0 4 -13 -9 -29 -29 -15 -20
-32 -33 -35 -29 -4 4 -7 3 -6 -3 5 -21 0 -36 -9 -30 -5 3 -12 -4 -16 -15 -4
-11 -11 -17 -17 -14 -7 5 -8 2 -3 -5 4 -7 -1 -22 -13 -34 -23 -25 -94 -162
-99 -191 -2 -11 -8 -25 -14 -32 -5 -6 -9 -16 -8 -20 1 -5 -3 -21 -9 -37 -12
-28 -21 -78 -26 -134 -1 -18 -4 -35 -7 -37 -4 -4 -2 -100 5 -258 0 -16 4 -28
9 -28 4 0 7 -15 7 -33 0 -19 3 -36 6 -40 6 -5 49 -123 56 -152 2 -5 5 -12 8
-15 3 -3 17 -27 30 -53 14 -26 33 -57 43 -67 9 -11 17 -24 17 -30 0 -5 5 -10
10 -10 6 0 10 -6 10 -13 0 -7 9 -19 20 -27 11 -8 20 -20 20 -28 0 -7 5 -10 10
-7 6 3 10 2 10 -4 0 -16 99 -109 104 -97 2 6 5 3 5 -6 1 -9 10 -20 21 -23 11
-3 20 -11 20 -16 0 -6 4 -8 9 -5 5 3 12 -1 15 -10 3 -8 10 -12 16 -9 5 3 10
-1 10 -10 0 -9 4 -14 9 -10 5 3 17 -2 25 -11 9 -8 16 -12 16 -8 0 4 10 -1 22
-12 14 -13 19 -14 14 -4 -7 13 -6 13 6 0 7 -8 20 -16 28 -18 8 -2 17 -7 20
-10 5 -8 27 -14 48 -15 6 0 12 -5 12 -10 0 -6 3 -7 7 -4 3 4 17 0 30 -8 16
-11 23 -12 23 -4 0 7 9 4 22 -7 13 -12 18 -13 13 -4 -8 13 -7 13 10 0 10 -8
20 -14 22 -12 1 1 4 2 6 1 22 -6 107 -11 207 -11 157 1 170 2 170 16 0 6 5 4
10 -4 6 -9 10 -10 10 -3 0 6 9 10 20 8 11 -2 20 -1 20 3 0 7 16 11 58 14 6 1
12 5 12 10 0 4 11 8 24 8 14 0 28 5 31 10 4 6 11 8 16 5 5 -4 9 -2 9 2 0 5 23
17 50 28 28 11 50 23 50 28 0 4 5 5 10 2 6 -3 10 -2 10 4 0 6 11 13 25 17 14
3 22 10 19 15 -3 5 2 9 10 9 8 0 24 10 36 22 11 12 20 18 20 14 0 -4 15 9 34
28 18 20 36 33 40 29 3 -3 6 -1 6 6 0 7 16 27 35 45 19 19 35 36 35 40 0 3 8
14 18 25 32 34 52 65 52 79 0 7 4 11 9 7 5 -3 11 5 13 17 2 13 9 22 16 20 8
-1 11 1 9 5 -3 5 5 31 18 58 13 28 24 58 24 68 1 9 4 17 9 17 4 0 13 26 21 58
7 31 18 63 23 70 7 8 6 12 -3 12 -9 0 -10 3 -4 8 10 7 11 15 17 75 1 15 7 27
13 27 5 0 4 4 -3 9 -15 9 -15 17 -1 44 7 12 6 17 -3 17 -10 0 -10 2 1 9 9 6
10 10 2 16 -9 5 -9 10 0 21 6 8 8 14 3 14 -5 0 -10 26 -12 58 -5 97 -7 107
-14 112 -4 3 -8 20 -10 38 -1 18 -7 32 -12 32 -5 0 -7 3 -3 6 3 4 0 19 -9 35
-8 16 -14 32 -14 36 2 13 -44 107 -55 115 -5 4 -6 8 -1 8 4 0 -3 15 -18 34
-14 19 -26 39 -26 45 0 6 -4 11 -10 11 -5 0 -10 7 -10 16 0 8 -4 12 -10 9 -5
-3 -10 0 -10 8 0 22 -177 197 -199 197 -5 0 -12 7 -15 16 -4 9 -13 14 -22 10
-8 -3 -12 -2 -9 4 3 6 -1 10 -9 10 -9 0 -16 5 -16 10 0 6 -6 10 -14 10 -8 0
-16 5 -18 10 -2 6 -14 12 -27 15 -13 2 -32 11 -41 20 -10 9 -29 18 -44 21 -14
2 -38 9 -53 15 -16 6 -29 10 -30 10 -2 0 -21 6 -44 14 -23 8 -45 13 -49 10 -5
-3 -11 1 -13 7 -4 10 -6 10 -6 0 -1 -9 -6 -10 -20 -3 -10 6 -21 7 -25 4 -3 -3
-6 -1 -6 5 0 8 -7 9 -26 2 -14 -6 -23 -6 -20 -1 7 11 -165 8 -183 -3 -10 -6
-12 -5 -7 2 7 12 3 16 -6 6z"/>
<path d="M8670 13668 c0 -6 -3 -9 -6 -6 -3 3 -15 -4 -27 -16 -13 -11 -56 -50
-97 -86 -41 -36 -85 -75 -97 -87 -13 -12 -23 -20 -23 -18 0 3 -16 -10 -35 -28
-19 -17 -53 -49 -77 -69 -58 -50 -105 -91 -156 -139 -23 -21 -45 -39 -48 -39
-3 0 -15 -10 -28 -22 -12 -13 -46 -43 -75 -68 -29 -25 -65 -56 -81 -70 -36
-32 -72 -64 -144 -125 -33 -27 -74 -65 -92 -82 -19 -18 -34 -31 -34 -28 0 2
-17 -13 -39 -35 -21 -21 -41 -36 -45 -33 -3 4 -6 -1 -6 -11 0 -9 -4 -15 -9
-12 -4 3 -19 -7 -33 -22 -31 -33 -98 -92 -106 -92 -9 0 -62 -63 -62 -73 0 -5
5 -5 13 1 7 6 28 10 47 8 19 -1 47 2 63 5 15 4 27 4 27 0 0 -9 42 -7 58 3 7 4
12 4 12 -1 0 -4 28 -9 63 -10 34 -1 82 -5 107 -8 25 -3 59 -6 75 -8 17 -2 36
-6 43 -11 7 -4 23 -9 35 -11 31 -5 48 -10 82 -24 17 -7 38 -13 48 -14 9 -1 17
-5 17 -10 0 -4 4 -6 9 -2 5 3 12 1 16 -5 4 -6 11 -8 16 -5 5 4 9 1 9 -6 0 -7
3 -9 6 -6 4 4 19 -2 34 -13 15 -11 30 -17 34 -13 3 3 6 0 6 -7 0 -7 3 -11 6
-8 5 6 28 -7 127 -74 77 -52 112 -83 267 -238 152 -152 200 -204 200 -219 0
-5 7 -14 15 -21 32 -27 162 -268 169 -315 1 -5 7 -23 13 -40 37 -96 64 -318
60 -500 l-2 -120 35 40 c19 22 38 41 43 43 4 2 7 8 7 12 0 5 17 27 38 49 52
55 112 123 112 127 0 2 15 19 33 38 17 19 52 58 77 87 25 29 61 71 81 93 52
60 101 116 124 142 11 12 38 44 60 70 22 26 53 61 69 78 15 17 45 51 65 76 20
25 43 52 52 60 9 8 40 44 70 79 30 36 61 72 69 81 90 99 220 251 220 260 0 4
-17 4 -37 1 -47 -8 -318 -5 -393 4 -30 3 -65 7 -77 8 -13 0 -23 4 -23 7 0 4
-6 7 -12 8 -31 2 -73 14 -85 24 -7 6 -13 7 -13 4 0 -4 -15 1 -32 10 -58 30
-67 34 -79 34 -7 0 -27 11 -44 25 -18 13 -35 21 -39 18 -3 -3 -8 2 -12 11 -3
9 -10 14 -14 11 -4 -2 -15 4 -25 15 -10 11 -23 20 -29 20 -6 0 -24 16 -40 35
-16 19 -34 35 -40 35 -13 0 -236 221 -236 234 0 4 -14 22 -30 39 -76 80 -158
228 -195 352 -10 33 -21 69 -25 80 -11 34 -15 111 -15 328 0 114 -3 207 -7
207 -5 0 -8 -5 -8 -12z"/>
<path d="M7518 12235 c-2 -2 -39 -5 -81 -6 -43 -1 -80 -6 -83 -11 -3 -5 -11
-4 -19 2 -7 6 -16 7 -18 3 -3 -5 -23 -10 -43 -11 -21 -2 -45 -8 -53 -15 -12
-10 -13 -9 -6 3 6 12 5 13 -6 3 -7 -7 -21 -13 -30 -13 -9 0 -34 -8 -55 -17
-22 -9 -49 -17 -61 -17 -12 -1 -25 -5 -30 -10 -5 -6 -2 -6 7 -1 8 5 12 4 7 0
-4 -5 -15 -10 -24 -11 -28 -4 -73 -26 -73 -36 0 -5 -6 -8 -14 -6 -7 2 -50 -21
-96 -50 -91 -59 -95 -62 -151 -113 -21 -20 -39 -35 -39 -34 0 2 -13 -10 -30
-26 -16 -16 -28 -31 -27 -33 1 -1 -10 -13 -24 -27 -50 -46 -189 -249 -172
-249 5 0 3 -4 -3 -8 -13 -8 -83 -179 -90 -220 -3 -14 -7 -29 -10 -34 -7 -12
-14 -47 -30 -158 -15 -111 -2 -393 21 -431 4 -5 8 -19 10 -31 9 -46 59 -188
67 -188 4 0 8 -5 8 -11 0 -18 44 -109 52 -109 5 0 8 -6 8 -13 0 -7 9 -23 20
-35 12 -12 17 -22 13 -22 -4 0 -1 -6 7 -13 8 -7 24 -25 34 -42 26 -40 30 -45
113 -128 76 -76 75 -76 138 -122 22 -17 42 -33 45 -36 3 -4 15 -9 28 -13 12
-4 22 -12 22 -17 0 -6 14 -15 30 -20 17 -6 30 -16 30 -22 0 -6 3 -8 6 -4 4 3
28 -5 55 -19 27 -13 51 -24 54 -24 3 0 19 -7 35 -15 17 -9 35 -13 39 -10 5 3
15 -1 23 -8 7 -8 21 -13 31 -11 9 1 17 -3 17 -9 0 -5 3 -8 6 -5 3 4 20 2 37
-4 18 -5 48 -11 67 -12 19 -2 35 -5 35 -6 0 -7 259 -17 275 -10 3 1 23 3 45 5
66 5 115 14 136 25 14 8 19 7 19 -2 0 -10 2 -10 9 0 4 8 11 13 15 13 3 -1 7
-1 9 0 1 0 13 3 27 5 13 2 27 8 30 13 3 4 13 7 23 5 9 -1 17 2 17 7 0 6 5 7
10 4 6 -3 10 -2 10 4 0 6 7 8 15 5 8 -4 15 -1 15 5 0 6 7 11 15 11 8 0 15 6
15 13 0 9 3 8 9 -2 5 -7 10 -9 12 -5 2 5 22 18 44 29 22 11 54 30 71 42 17 13
34 23 38 23 37 0 336 289 336 325 0 3 9 15 19 26 10 11 30 42 43 67 14 26 30
56 36 67 21 38 61 136 68 170 1 6 8 24 14 40 13 31 15 38 24 95 3 19 8 46 12
60 3 14 7 70 9 125 3 55 5 102 6 105 1 3 0 10 -1 15 -1 6 -4 28 -5 50 -5 61
-14 116 -26 160 -5 22 -11 47 -13 55 -4 24 -29 104 -36 115 -4 6 -17 37 -30
70 -13 33 -26 62 -29 65 -3 3 -13 19 -21 35 -16 32 -51 87 -61 95 -3 3 -8 10
-10 16 -7 20 -63 85 -135 158 -84 83 -91 89 -175 147 -35 24 -67 49 -71 54 -4
6 -8 6 -8 1 0 -5 -10 -1 -22 10 -14 13 -19 14 -14 4 5 -9 2 -8 -7 2 -8 10 -17
15 -20 11 -4 -3 -7 -2 -7 4 0 5 -18 16 -40 23 -22 7 -40 17 -40 22 0 5 -4 7
-9 4 -4 -3 -24 3 -44 13 -20 10 -34 14 -30 7 4 -7 1 -6 -9 1 -8 7 -18 10 -21
6 -4 -3 -7 -1 -7 5 0 7 -13 12 -29 12 -17 0 -32 4 -35 9 -3 5 -15 7 -26 4 -12
-3 -20 0 -20 7 0 9 -3 10 -13 1 -8 -6 -16 -8 -19 -6 -9 9 -51 17 -110 20 -31
2 -61 6 -66 9 -5 3 -11 3 -14 1z"/>
<path d="M9390 10848 c-30 -34 -71 -78 -90 -98 -19 -20 -60 -65 -90 -100 -30
-34 -64 -72 -75 -85 -11 -12 -38 -43 -60 -69 -22 -25 -58 -66 -80 -90 -22 -24
-65 -72 -95 -107 -30 -35 -64 -73 -75 -86 -11 -12 -32 -37 -47 -55 -58 -70
-71 -85 -128 -144 -33 -34 -56 -65 -52 -69 4 -4 1 -6 -6 -4 -7 2 -59 -41 -115
-96 -104 -103 -157 -149 -157 -139 0 3 -7 -2 -16 -10 -8 -9 -21 -16 -29 -16
-7 0 -15 -7 -19 -15 -3 -8 -17 -20 -31 -25 -14 -5 -25 -15 -25 -21 0 -7 -3 -9
-6 -6 -4 3 -16 1 -28 -5 -11 -7 -23 -13 -26 -14 -3 0 -23 -9 -45 -19 -51 -22
-88 -38 -97 -40 -5 -2 -11 -4 -15 -5 -5 -1 -11 -2 -15 -1 -5 0 -8 -3 -8 -8 0
-6 -9 -8 -20 -6 -11 2 -20 0 -20 -5 0 -4 -8 -7 -17 -5 -10 1 -23 -2 -30 -7 -7
-6 -18 -8 -25 -5 -7 2 -21 0 -31 -5 -11 -5 -35 -12 -55 -14 -63 -8 -425 -11
-459 -4 -19 5 -36 3 -42 -3 -7 -7 -11 -7 -11 -1 0 5 -13 11 -30 12 -16 1 -30
0 -30 -3 0 -3 21 -29 48 -56 57 -61 91 -98 202 -219 47 -50 105 -113 128 -139
24 -25 78 -84 120 -130 43 -46 93 -100 112 -121 19 -20 78 -83 130 -140 52
-57 114 -123 137 -147 22 -24 40 -43 39 -43 -1 0 25 -29 58 -64 55 -58 178
-191 253 -272 115 -126 206 -225 256 -277 31 -33 57 -62 57 -64 0 -1 12 -15
28 -31 33 -34 126 -133 257 -276 55 -60 117 -127 138 -150 22 -23 67 -72 100
-109 34 -37 87 -94 117 -126 30 -32 96 -102 145 -156 50 -54 104 -112 120
-130 40 -42 129 -139 186 -202 26 -29 49 -50 51 -48 2 3 0 40 -5 82 -8 73 -3
455 7 535 7 51 54 236 66 259 6 10 8 19 5 19 -3 0 0 12 8 28 14 25 39 81 42
92 4 14 30 66 36 70 3 3 18 31 33 62 15 31 34 62 42 69 8 6 14 17 14 23 0 6 9
18 20 26 11 8 20 20 20 26 0 7 11 21 25 32 14 11 25 25 25 31 0 14 367 381
381 381 6 0 22 14 36 30 14 17 28 29 30 26 3 -2 13 3 22 12 27 26 62 47 72 44
5 -1 9 2 9 7 0 5 12 16 28 23 46 24 77 43 83 51 3 5 8 8 10 7 2 -1 31 10 64
25 33 14 72 29 88 32 15 3 27 9 27 13 0 3 6 7 13 8 26 2 71 13 90 23 17 10 59
18 112 23 11 1 25 4 30 7 13 7 67 13 138 13 31 1 57 3 57 6 0 3 70 5 155 5 85
0 155 -2 155 -5 0 -7 98 -6 105 1 3 3 -25 33 -62 65 -36 32 -83 75 -104 94
-20 19 -74 69 -120 110 -103 94 -117 107 -225 206 -49 44 -109 98 -134 120
-24 21 -63 57 -86 79 -23 22 -63 60 -90 84 -27 24 -85 76 -129 116 -44 40 -93
85 -110 100 -56 50 -208 190 -246 225 -20 19 -70 64 -110 100 -39 36 -89 81
-109 100 -21 19 -57 53 -82 75 -134 121 -343 311 -369 337 -10 9 -20 14 -23
11 -3 -4 -6 1 -6 10 0 10 -4 17 -8 17 -4 0 -32 23 -61 50 -29 28 -58 50 -63
50 -5 0 -6 5 -3 10 3 6 3 10 -2 10 -4 0 -20 11 -35 23 -40 35 -205 187 -244
225 -18 17 -37 32 -41 32 -4 0 -33 -28 -63 -62z"/>
<path d="M11516 8372 c-2 -2 -26 -4 -53 -6 -28 -2 -55 -6 -61 -10 -7 -4 -16
-4 -22 -1 -5 3 -10 2 -10 -3 0 -6 -9 -8 -20 -5 -11 3 -20 1 -20 -5 0 -5 -12
-10 -27 -10 -33 0 -53 -5 -70 -15 -7 -5 -17 -6 -22 -2 -5 3 -12 1 -16 -5 -4
-6 -10 -8 -15 -5 -5 3 -14 0 -22 -7 -14 -13 -33 -20 -55 -21 -7 0 -13 -4 -13
-9 0 -4 -3 -7 -7 -6 -5 1 -21 -5 -38 -12 -16 -7 -33 -13 -37 -12 -5 1 -8 -3
-8 -9 0 -6 -7 -9 -15 -5 -8 3 -15 1 -15 -4 0 -6 -7 -10 -15 -10 -8 0 -15 -4
-15 -10 0 -5 -6 -10 -14 -10 -8 0 -21 -6 -28 -14 -8 -7 -24 -17 -36 -20 -13
-4 -19 -12 -16 -18 5 -7 1 -9 -9 -5 -10 4 -17 1 -17 -5 0 -6 -3 -8 -7 -5 -3 4
-12 -1 -19 -11 -7 -9 -16 -17 -21 -17 -8 0 -47 -31 -85 -67 -10 -10 -18 -15
-18 -12 0 4 -9 -5 -21 -20 -11 -14 -25 -24 -30 -21 -5 4 -9 1 -9 -4 0 -16 -32
-51 -42 -45 -5 3 -7 2 -6 -3 2 -5 -16 -29 -40 -53 -23 -25 -42 -48 -42 -53 0
-4 -11 -18 -25 -31 -13 -13 -22 -26 -18 -29 3 -4 1 -7 -5 -7 -6 0 -17 -11 -24
-24 -27 -49 -77 -131 -86 -142 -5 -5 -15 -27 -21 -47 -7 -20 -17 -37 -23 -37
-6 0 -8 -3 -5 -6 3 -4 1 -16 -5 -28 -7 -11 -13 -24 -14 -28 -1 -5 -3 -10 -4
-13 -1 -3 -4 -9 -5 -15 -1 -5 -4 -13 -5 -17 -1 -5 -2 -11 -1 -15 0 -5 -4 -8
-10 -8 -5 0 -7 -4 -4 -10 3 -5 2 -10 -4 -10 -5 0 -8 -11 -6 -25 1 -14 -2 -25
-7 -25 -5 0 -7 -4 -3 -9 3 -5 1 -12 -4 -16 -5 -3 -10 -13 -10 -23 0 -9 -7 -47
-14 -84 -8 -38 -12 -68 -10 -68 3 0 -1 -8 -8 -17 -12 -14 -12 -16 0 -8 10 6
12 4 6 -5 -12 -20 -15 -55 -15 -185 1 -143 5 -204 14 -226 4 -9 8 -32 9 -53 1
-20 4 -36 7 -36 3 0 7 -12 8 -27 2 -25 33 -134 49 -173 3 -8 7 -17 8 -20 41
-118 185 -362 255 -430 17 -16 30 -32 30 -35 0 -3 25 -30 55 -60 30 -29 55
-52 55 -51 0 2 21 -17 46 -41 25 -23 53 -43 61 -43 8 0 11 -4 8 -10 -3 -5 0
-10 8 -10 7 0 22 -8 33 -17 27 -24 55 -42 77 -49 9 -4 17 -11 17 -16 0 -5 5
-6 10 -3 6 3 10 1 10 -4 0 -6 7 -11 15 -11 8 0 15 -4 15 -8 0 -5 18 -14 40
-21 22 -6 40 -15 40 -19 0 -4 10 -9 22 -9 13 -1 24 -7 26 -13 2 -5 12 -10 21
-10 10 0 21 -3 25 -7 3 -4 14 -8 22 -9 9 -1 23 -6 32 -10 21 -9 43 -15 60 -16
6 -1 12 -5 12 -9 0 -4 11 -6 25 -4 14 1 25 -1 25 -6 0 -4 9 -6 20 -4 11 2 20
-1 20 -7 0 -6 9 -8 20 -5 11 3 20 2 20 -3 0 -4 11 -6 25 -5 14 2 25 0 25 -4 0
-10 31 -7 49 4 10 6 12 4 6 -5 -6 -10 -3 -12 13 -8 12 4 25 2 28 -3 3 -6 11
-5 20 2 8 6 14 8 14 3 0 -11 168 -10 255 1 33 4 72 8 88 9 15 0 27 4 27 8 0 3
11 5 25 3 14 -1 25 2 25 8 0 5 9 7 20 4 11 -3 20 -1 20 4 0 5 3 8 8 7 12 -3
86 14 97 22 6 4 25 11 43 15 17 3 32 11 32 16 0 5 9 9 19 9 11 0 23 5 26 11 4
6 13 8 21 5 8 -3 14 -2 14 2 0 8 57 35 65 30 4 -2 11 5 16 15 6 9 19 17 29 17
11 0 20 5 20 10 0 6 5 10 11 10 7 0 18 8 26 18 10 11 12 12 8 2 -4 -10 -2 -9
8 3 8 9 19 17 26 17 6 0 11 4 11 8 0 12 56 42 64 34 4 -4 6 -2 4 3 -1 6 7 20
20 33 12 12 22 19 22 15 0 -5 11 4 24 20 13 15 28 27 35 27 6 0 11 4 11 9 0 4
26 34 57 65 31 31 68 74 83 96 15 22 30 37 33 33 4 -3 7 -2 7 3 0 9 56 103 77
129 4 6 21 37 38 70 16 33 32 62 35 65 7 6 41 98 47 128 3 12 8 22 12 22 4 0
8 11 9 26 1 14 6 33 11 42 8 15 15 43 26 107 2 11 4 20 5 20 6 0 23 143 23
192 -1 18 3 30 8 27 5 -3 4 7 -1 21 -6 17 -7 33 0 44 5 10 7 21 3 24 -3 3 -7
32 -9 64 -5 82 -12 144 -18 173 -14 61 -20 96 -18 103 1 4 -2 7 -8 7 -5 0 -7
7 -4 15 4 8 2 21 -4 28 -6 7 -13 24 -15 37 -6 32 -33 103 -60 160 -12 24 -21
48 -20 52 2 4 -2 8 -9 8 -6 0 -8 3 -5 7 4 3 2 12 -4 20 -13 15 -43 66 -61 103
-7 14 -21 31 -31 38 -9 7 -15 17 -12 22 3 4 2 10 -2 12 -5 1 -26 26 -48 53
-22 28 -43 52 -47 53 -5 2 -8 10 -8 18 0 8 -7 14 -15 14 -8 0 -15 6 -15 14 0
8 -9 18 -20 21 -11 3 -20 12 -20 20 0 7 -4 15 -8 17 -10 4 -94 73 -129 106
-13 12 -28 22 -33 22 -6 0 -10 5 -10 11 0 5 -4 7 -10 4 -5 -3 -10 -1 -10 5 0
6 -8 13 -17 17 -10 4 -36 18 -58 33 -43 28 -181 97 -205 102 -8 2 -21 10 -28
18 -12 13 -13 13 -6 0 6 -12 5 -13 -7 -4 -8 6 -34 17 -59 24 -25 7 -49 16 -55
20 -9 6 -24 8 -72 12 -7 1 -13 5 -13 10 0 5 -4 6 -10 3 -5 -3 -15 -3 -22 1 -7
4 -26 9 -43 10 -16 1 -30 2 -30 4 0 1 -18 4 -40 5 -22 2 -40 4 -40 5 0 3 -266
6 -269 2z"/>
<path d="M13140 5921 c0 -5 -15 -27 -32 -50 -47 -58 -423 -435 -439 -439 -7
-2 -19 -12 -27 -23 -7 -10 -18 -19 -24 -19 -6 0 -19 -10 -29 -22 -11 -11 -19
-17 -19 -13 0 4 -8 1 -17 -7 -22 -20 -102 -67 -125 -75 -10 -3 -18 -10 -18
-15 0 -5 -4 -7 -9 -3 -5 3 -12 1 -16 -5 -4 -6 -11 -8 -16 -5 -5 4 -9 1 -9 -4
0 -6 -3 -10 -7 -9 -5 1 -18 -3 -29 -10 -12 -6 -24 -8 -28 -5 -3 3 -6 2 -6 -4
0 -11 -40 -26 -70 -27 -8 0 -17 -3 -20 -6 -7 -7 -80 -33 -105 -36 -11 -2 -33
-6 -50 -10 -16 -4 -40 -8 -52 -8 -13 -1 -23 -4 -23 -7 0 -8 9 -8 -260 -13
-118 -3 -217 -6 -220 -7 -3 -1 -8 -1 -12 0 -4 0 -31 3 -60 7 -118 12 -175 22
-198 31 -8 4 -22 8 -30 9 -8 1 -26 6 -40 9 -14 4 -31 7 -37 7 -7 1 -13 5 -13
10 0 5 -4 6 -10 3 -5 -3 -10 -2 -10 4 0 6 -6 8 -14 5 -8 -3 -25 0 -38 7 -13 7
-26 12 -30 11 -5 -1 -8 3 -8 9 0 5 -4 8 -9 4 -5 -3 -12 -1 -16 5 -4 6 -11 8
-16 5 -5 -4 -9 -1 -9 5 0 6 -4 8 -10 5 -5 -3 -10 -2 -10 3 0 5 -10 12 -22 16
-13 3 -23 4 -23 3 0 -1 -14 8 -32 21 -17 12 -36 22 -42 22 -6 0 -11 5 -11 10
0 6 -5 10 -12 10 -6 0 -26 11 -44 25 -18 14 -37 25 -43 25 -5 0 -17 10 -26 23
-8 12 -19 21 -23 21 -4 -1 -22 10 -40 25 -47 37 -382 369 -382 378 -1 4 -20
29 -43 56 l-42 48 1 -394 0 -393 -1010 0 -1011 1 2 -1245 c0 -685 1 -1248 2
-1251 1 -3 422 -5 936 -5 526 1 935 -3 935 -8 0 -5 6 -5 13 0 7 6 678 9 1580
8 862 0 1568 2 1568 5 7 25 3 3291 -3 3291 -4 0 -8 -4 -8 -9z"/>
</g>
</svg>
